<?xml version="1.0" encoding="utf-8" ?>
<svg xmlns="http://www.w3.org/2000/svg" xmlns:xlink="http://www.w3.org/1999/xlink" width="1024" height="1024">
	<path fill="#58589E" transform="scale(2 2)" d="M391.075 137.807C396.917 138.616 395.314 149.959 392.946 151.55C386.199 151.275 387.581 139.899 391.075 137.807Z"/>
	<path fill="#58589E" transform="scale(2 2)" d="M156.76 223.994C167.556 225.266 141.877 245.129 140.943 245.579C130.317 244.921 155.207 224.951 156.76 223.994Z"/>
	<path fill="#58589E" transform="scale(2 2)" d="M155.798 185.225C167.788 185.034 140.891 206.919 139.347 207.945C127.026 208.885 154.451 185.99 155.798 185.225Z"/>
	<path fill="#58589E" transform="scale(2 2)" d="M433.38 115.104C448.63 113.871 458.221 133.1 446.85 144.16C439.27 151.532 428.201 149.64 421.367 142.43C412.38 151.159 403.792 160.372 394.706 168.978L394.686 223.201C394.704 225.834 395.903 235.386 392.327 236.122C387.75 234.853 389.714 225.416 389.718 221.195L389.727 195.375C389.734 188.271 389.3 180.804 389.727 173.743C379.681 182.714 370.385 194.227 360.552 202.538C359.172 203.704 355.134 205.744 355.307 202.141C355.484 198.424 365.784 190.131 368.443 187.473L407.377 148.768C411.087 145.073 414.667 141.082 418.754 137.807C415.551 127.137 421.761 116.331 433.38 115.104Z"/>
	<path fill="#A8DECF" transform="scale(2 2)" d="M426.041 139.638C416.439 127.944 431.922 114.568 442.808 123.656C439.462 127.801 430.415 136.913 426.041 139.638Z"/>
	<path fill="#6BC6CF" transform="scale(2 2)" d="M442.808 123.656C453.964 135.672 437.004 151.211 426.041 139.638C430.415 136.913 439.462 127.801 442.808 123.656Z"/>
	<path fill="#58589E" transform="scale(2 2)" d="M376.82 87.729C385.604 87.4496 392.517 91.8289 394.079 100.897C394.659 104.266 396.918 125.391 391.643 125.268C383.766 125.083 398.443 93.3635 377.854 93.0024C359.733 92.6845 341.557 93.0005 323.429 93.0035L133.618 92.9891C107.846 92.9776 113.477 98.904 113.488 121.703L113.484 296.946L148.919 296.946C154.919 296.948 160.954 297.126 166.948 296.946C171.812 293.349 186.168 276.274 190.581 275.659C193.005 275.321 193.094 278.949 191.915 280.344C186.577 286.659 175.314 296.715 169.095 301.988C166.905 302.194 164.641 302.03 162.441 302.011L113.484 301.988L113.466 320.399C113.458 340.405 114.533 338.69 131.932 338.635L300.115 338.637C302.385 338.636 326.089 336.329 320.211 343.11C318.751 344.794 309.33 343.918 307.012 343.916L283.456 343.898L283.456 377.67L306.938 377.665C310.737 377.667 314.941 377.336 318.691 377.789C320.918 378.057 322.303 381.302 320.103 382.414C318.307 383.322 309.82 382.854 307.444 382.852L200.328 382.828C179.158 382.801 180.097 379.015 180.244 400.258L283.456 400.258L308.436 400.299C310.908 400.299 319.966 398.916 320.817 402.205C322.183 407.485 308.454 405.37 304.979 405.366L91.7469 405.364C90.3423 411.26 87.3926 416.843 81.5585 419.404C58.9006 429.351 46.0313 395.831 67.4311 387.488C78.6574 383.111 87.823 389.731 91.7469 400.258L175.125 400.258C176.315 380.7 170.971 377.622 193.797 377.656L217.743 377.67L217.743 343.898C209.823 343.745 201.875 343.89 193.951 343.89L130.478 343.914C121.936 343.927 112.297 344.885 109.236 334.549C107.463 328.563 108.237 309.242 108.249 301.988L92.9206 301.996C90.1305 302.003 87.285 302.175 84.5041 301.988C67.6842 332.237 39.2321 304.842 52.7653 286.889C62.2614 274.292 82.0423 279.87 84.5041 296.946C86.9971 296.681 89.7297 296.916 92.2465 296.92L108.249 296.946L108.263 118.671C108.237 96.3951 104.731 87.4902 130.576 87.7246L376.82 87.729ZM273.764 343.898L222.752 343.898L222.752 377.67C224.56 377.674 226.38 377.719 228.187 377.67L278.249 377.67L278.249 343.898C276.754 343.88 275.258 343.846 273.764 343.898Z"/>
	<path fill="#6BC6CF" transform="scale(2 2)" d="M85.6182 399.535C89.5372 415.545 68.737 423.035 62.0856 406.736C74.5046 407.338 75.5087 403.876 85.1814 399.72L85.6182 399.535Z"/>
	<path fill="#6BC6CF" transform="scale(2 2)" d="M76.9592 291.494C86.0993 305.912 63.0281 318.145 55.2587 301.988C62.4889 301.839 71.6351 296.441 76.9592 291.494Z"/>
	<path fill="#A8DECF" transform="scale(2 2)" d="M55.2587 301.988C50.505 288.715 69.2825 279.033 76.9592 291.494C71.6351 296.441 62.4889 301.839 55.2587 301.988Z"/>
	<path fill="#A8DECF" transform="scale(2 2)" d="M62.0856 406.736C59.4946 391.8 79.709 385.425 85.6182 399.535L85.1814 399.72C75.5087 403.876 74.5046 407.338 62.0856 406.736Z"/>
	<path fill="#58589E" transform="scale(2 2)" d="M393.629 247.793C404.877 246.787 416.04 250.899 424.024 258.925C434.548 269.503 434.581 280.268 434.567 294.128L434.555 313.122C443.999 313.088 461.402 309.273 461.751 322.51C461.934 329.471 461.801 336.466 461.8 343.429L461.821 403.08C461.898 426.243 456.843 421.827 436.425 421.828L397.875 421.816L357.351 421.821C348.047 421.821 331.137 425.552 330.499 412.772C330.164 406.074 330.391 399.275 330.389 392.564L330.392 332.866C330.395 326.072 328.344 315.52 337.176 313.449C341.197 312.506 352.888 313.147 357.747 313.122L357.728 293.908C357.727 290.011 357.543 286.008 357.887 282.125C359.493 264.002 375.008 247.889 393.629 247.793ZM338.17 318.242C333.628 320.619 335.628 338.952 335.625 344.137L335.606 403.141C335.599 419.255 333.787 416.738 350.687 416.746L453.719 416.744C458.755 414.536 456.637 399.526 456.635 394.338L456.648 336.087C456.637 314.793 459.214 318.248 437.006 318.241L338.17 318.242ZM392.946 252.999C368.537 254.936 362.772 274.357 362.798 295.287L362.809 313.122L400.062 313.122L429.562 313.122L429.583 295.222C429.592 283.101 429.784 271.92 420.524 262.655C413.628 255.754 402.755 251.488 392.946 252.999Z"/>
	<path fill="#A8DECF" transform="scale(2 2)" d="M347.847 329.492C351.455 329.237 355.199 329.466 358.824 329.478L445.271 329.492L445.245 398.556C445.243 400.605 446.496 404.864 443.812 405.364L378.743 405.365C368.129 405.366 357.362 404.973 346.766 405.364L346.802 335.432C346.803 333.838 345.939 330.813 346.998 329.5L347.847 329.492Z"/>
	<path fill="#58589E" transform="scale(2 2)" d="M418.754 338.627C421.938 339.116 425.441 340.008 427.836 342.281C438.819 352.705 421.247 365.398 414.564 372.066C408.939 377.677 403.522 383.48 397.937 389.124C388.018 399.146 380.224 388.181 373.008 380.874C368.863 376.394 361.346 371.041 361.061 364.666C360.778 358.359 365.424 352.977 371.891 353.181C378.117 353.377 385.059 362.342 389.174 366.598C395.401 360.361 411.744 341.445 418.754 338.627Z"/>
	<path fill="#FECE5C" transform="scale(2 2)" d="M389.174 373.891C395.382 365.97 407.123 355.477 414.581 347.874C418.792 343.581 421.81 342.869 426.041 347.672C427.035 354.876 419.335 359.786 414.489 364.758C408.592 370.81 402.679 377.231 396.367 382.836C389.516 392.249 387.043 387.245 381.142 381.366C378.646 378.879 366.648 368.221 366.199 365.055C365.768 362.02 368.382 358.464 371.531 358.238C375.419 357.959 385.477 370.758 388.806 373.582L389.174 373.891Z"/>
	<path fill="#FEA12A" transform="scale(2 2)" d="M426.041 347.672C427.035 354.876 419.335 359.786 414.489 364.758C408.592 370.81 402.679 377.231 396.367 382.836C395.904 380.303 395.782 378.02 397.332 375.805C400.731 370.946 420.866 351.574 426.041 347.672Z"/>
	<path fill="#58589E" transform="scale(2 2)" d="M248.897 119.249C252.156 119.076 254.357 122.642 256.653 124.568C271.771 137.254 291.161 147.683 310.611 151.816C312.756 152.272 320.833 152.394 321.504 154.889C322.263 157.712 321.771 172.725 321.769 176.621L321.779 200.002C321.789 247.698 303.912 270.221 264.437 296.26C260.105 299.118 255.085 302.934 250.085 304.384C219.18 289.848 182.267 257.154 177.545 221.452C176.799 215.809 177.052 209.928 177.055 204.245L177.05 163.818C177.039 153.232 174.935 154.166 184.015 152.691C202.868 149.628 221.248 140.943 236.35 129.426C240.148 126.529 244.98 121.322 248.897 119.249ZM235.224 147.791C224.425 154.05 213.815 158.763 201.626 161.55C195.925 162.853 187.227 163.78 182.26 166.194C182.571 163.649 182.688 160.999 182.26 158.457C181.967 161.431 182.257 164.612 182.261 167.613L182.254 204.951C182.251 210.573 182.183 216.264 182.964 221.844C187.669 255.464 222.603 284.216 250.691 298.842C278.642 281.246 306.546 261.455 314.284 227.256C317.658 212.349 317.38 179.799 316.588 162.887C292.604 157.87 282.729 156.08 261.657 144.397L261.236 144.166C258.381 141.34 255.829 139.554 252.201 137.807C248.273 136.389 239.419 145.748 235.224 147.791ZM250.085 125.11C243.997 129.412 237.373 135.003 231.265 139.638C227.225 141.055 223.718 144.032 219.936 146.018C208.282 152.137 195.349 156.75 182.26 158.457C182.688 160.999 182.571 163.649 182.26 166.194C187.227 163.78 195.925 162.853 201.626 161.55C213.815 158.763 224.425 154.05 235.224 147.791C239.419 145.748 248.273 136.389 252.201 137.807C255.829 139.554 258.381 141.34 261.236 144.166L261.657 144.397C282.729 156.08 292.604 157.87 316.588 162.887L316.588 158.457C298.246 156.318 262.735 140.304 250.085 125.11Z"/>
	<path fill="#D8EAF2" transform="scale(2 2)" d="M235.224 147.791C239.419 145.748 248.273 136.389 252.201 137.807C255.829 139.554 258.381 141.34 261.236 144.166L261.657 144.397C282.729 156.08 292.604 157.87 316.588 162.887C317.38 179.799 317.658 212.349 314.284 227.256C306.546 261.455 278.642 281.246 250.691 298.842C222.603 284.216 187.669 255.464 182.964 221.844C182.183 216.264 182.251 210.573 182.254 204.951L182.261 167.613C182.257 164.612 181.967 161.431 182.26 158.457C182.688 160.999 182.571 163.649 182.26 166.194C187.227 163.78 195.925 162.853 201.626 161.55C213.815 158.763 224.425 154.05 235.224 147.791ZM221.399 189.371L221.399 194.019L217.743 194.019C216.04 194.002 213.008 193.636 211.719 194.821C210.626 197.991 211.001 227.845 211.371 232.937C214.498 275.906 280.414 280.285 288.031 234.636C288.755 230.299 288.998 198.57 287.978 195.224C286.06 193.358 281.562 193.988 279.044 194.019C278.811 181.858 280.771 169.623 271.364 160.141C260.166 148.855 241.025 148.204 229.686 159.613C221.017 168.335 221.427 177.988 221.399 189.371Z"/>
	<path fill="#58589E" transform="scale(2 2)" d="M221.399 189.371C221.427 177.988 221.017 168.335 229.686 159.613C241.025 148.204 260.166 148.855 271.364 160.141C280.771 169.623 278.811 181.858 279.044 194.019C281.562 193.988 286.06 193.358 287.978 195.224C288.998 198.57 288.755 230.299 288.031 234.636C280.414 280.285 214.498 275.906 211.371 232.937C211.001 227.845 210.626 197.991 211.719 194.821C213.008 193.636 216.04 194.002 217.743 194.019L221.399 194.019L221.399 189.371ZM247.914 156.75C226.399 158.167 226.647 178.136 226.7 194.019L252.874 194.019L273.764 194.019L273.784 183.744C273.786 168.168 265.014 154.459 247.914 156.75Z"/>
	<path fill="#FECE5C" transform="scale(2 2)" d="M216.385 199.337L274.552 199.337C277.543 199.484 280.461 199.462 283.456 199.337L283.466 216.826C283.453 238.865 276.733 261.894 250.348 261.838C246.975 261.83 231.893 259.221 231.265 255.698C216.988 249.384 216.347 232.173 216.359 219.053L216.385 199.337Z"/>
	<path fill="#58589E" transform="scale(2 2)" d="M248.897 215.531C258.14 214.639 259.436 223.478 254.534 230.698C254.653 235.049 254.554 239.419 254.534 243.773L252.201 243.773L245.478 243.773C245.146 239.399 245.904 235.059 245.478 230.698C241.024 224.421 240.817 218.16 248.897 215.531Z"/>
	<path fill="#FEA12A" transform="scale(2 2)" d="M274.552 199.337C277.543 199.484 280.461 199.462 283.456 199.337L283.466 216.826C283.453 238.865 276.733 261.894 250.348 261.838C246.975 261.83 231.893 259.221 231.265 255.698C226.535 251.041 220.203 242.663 221.045 235.881L221.158 235.878C222.801 238.352 224.275 240.935 226.29 243.138C236.573 254.378 256.229 257.105 267.65 246.123C277.659 236.5 274.184 213.151 274.552 199.337Z"/>
</svg>
