<?xml version="1.0" encoding="utf-8" ?>
<svg xmlns="http://www.w3.org/2000/svg" xmlns:xlink="http://www.w3.org/1999/xlink" width="1024" height="1024">
	<path fill="#104070" transform="scale(2 2)" d="M244.799 70.4825C261.619 70.5719 299.506 71.1263 311.364 79.3764C325.901 81.3862 332.956 86.0015 344.478 93.4817C348.759 94.2446 353.443 97.4943 357.127 99.8308C422.62 141.379 452.101 217.209 438.52 293.242C427.96 352.364 391.651 398.69 337.13 423.463C287.109 446.192 228.946 446.594 178.529 424.511C175.09 423.005 158.04 415.355 157.212 413.002C151.297 412.827 145.325 412.996 139.405 412.998L104.214 413.006C90.3957 413.007 68.5408 416.863 68.9931 396.036C69.1064 390.818 74.5593 392.122 78.2508 392.217L78.2409 320.13C78.2196 316.619 78.0511 313.113 78.2508 309.604C75.3255 312.188 74.4849 301.365 73.8507 298.507C61.9697 244.98 74.9813 189.131 107.949 145.659C136.11 108.526 180.088 80.3439 226.501 73.0186C232.014 72.1484 237.611 71.6791 243.065 70.4825L244.799 70.4825ZM131.932 296.536L152.338 296.536C154.686 293.393 158.405 290.854 161.349 288.228L214.408 240.462C229.967 226.278 247.835 212.022 262.423 197.771C260.416 194.452 256.996 199.531 252.892 201.748C224.316 217.18 190.549 217.5 159.842 208.848C156.777 207.984 153.191 206.301 150.052 206.129C145.695 205.891 143.384 209.739 144.741 213.538C146.574 218.665 166.013 248.945 164.911 250.686C161.321 251.987 141.41 253.503 136.403 253.96L118.247 255.766C113.51 256.257 103.491 255.91 106.216 263.701C108.518 270.28 126.351 291.317 131.932 296.536Z"/>
	<path fill="#0E95E1" transform="scale(2 2)" d="M270.054 346.27C272.13 349.236 273.635 352.516 275.198 355.769L270.054 355.769C270.124 352.604 269.936 349.436 270.054 346.27Z"/>
	<path fill="#F9B51F" transform="scale(2 2)" d="M311.969 221.501C316.846 220.751 321.276 219.334 325.996 217.994C326.904 219.631 327.848 221.054 328.999 222.532C328.024 223.316 327.073 224.063 325.996 224.708C319.93 223.856 317.581 226.356 311.969 221.501Z"/>
	<path fill="#0E95E1" transform="scale(2 2)" d="M311.969 413.935C316.784 410.391 324.866 408.106 330.846 408.86C334.757 409.353 337.092 412.3 340.344 413.935C337.941 413.754 335.426 413.912 333.013 413.918L319.015 413.983C316.691 413.999 314.282 414.14 311.969 413.935Z"/>
	<defs>
		<linearGradient id="gradient_0" gradientUnits="userSpaceOnUse" x1="287.66711" y1="370.71753" x2="271.85605" y2="365.93576">
			<stop offset="0" stop-color="#FF6942"/>
			<stop offset="1" stop-color="#F05C55"/>
		</linearGradient>
	</defs>
	<path fill="url(#gradient_0)" transform="scale(2 2)" d="M273.126 360.062L277.647 360.062C280.98 364.293 284.923 369.984 288.161 374.485L273.126 374.485C273.373 369.697 273.086 364.861 273.126 360.062Z"/>
	<path fill="#FEFCFC" transform="scale(2 2)" d="M148.444 396.467L176.914 396.467C176.88 396.55 176.846 396.634 176.81 396.717L176.629 397.13C174.567 401.907 170.191 401.147 165.687 401.114C156.975 401.114 140.678 404.664 137.311 396.467L148.444 396.467Z"/>
	<path fill="#0E95E1" transform="scale(2 2)" d="M336.316 170.839C337.561 169.666 339.355 168.914 340.822 168.028C350.061 162.448 358.019 145.337 362.428 143.76C361.052 147.585 360.814 151.362 359.855 155.244C357.841 163.4 348.332 170.524 340.344 172.655C338.985 172.08 337.629 171.516 336.316 170.839Z"/>
	<path fill="#F9B51F" transform="scale(2 2)" d="M255.198 360.062L273.126 360.062C273.086 364.861 273.373 369.697 273.126 374.485L255.198 374.485L255.198 360.062Z"/>
	<path fill="#FED26D" transform="scale(2 2)" d="M285.4 222.532C286.659 221.362 287.555 220.378 288.161 218.748C296.069 220.535 303.796 222.065 311.969 221.501C317.581 226.356 319.93 223.856 325.996 224.708C314.06 234.945 296.619 233.018 285.4 222.532Z"/>
	<path fill="#E84443" transform="scale(2 2)" d="M336.316 93.4817C346.956 99.7031 356.855 113.421 357.882 126.04C353.067 126.104 348.249 126.055 343.434 126.04C344.027 114.244 340.11 104.308 336.316 93.4817Z"/>
	<path fill="#E84443" transform="scale(2 2)" d="M248.757 308.377C249.691 309.95 251.921 351.621 251.774 355.769C248.841 355.586 245.996 355.613 243.065 355.769L239.666 355.769L239.644 343.2C239.639 329.286 244.932 321.132 248.757 308.377Z"/>
	<path fill="#E84443" transform="scale(2 2)" d="M348.993 200.387C360.692 208.485 371.194 214.28 376.21 229.187C371.899 227.02 367.812 225.015 363.298 223.27C352.663 220.936 343.34 219.672 332.454 219.72C331.58 218.697 330.786 217.593 329.969 216.523C336.764 212.021 344.251 207.167 348.993 200.387Z"/>
	<path fill="#09A3F6" transform="scale(2 2)" d="M259.544 280.511C260.649 299.941 260.897 318.176 267.108 336.791C268.101 339.767 269.435 342.818 269.992 345.908L270.054 346.27C269.936 349.436 270.124 352.604 270.054 355.769L256.526 355.769C256.339 350.06 255.801 344.373 255.403 338.677L253.626 312.31C252.292 293.045 252.729 299.294 259.544 280.511Z"/>
	<defs>
		<linearGradient id="gradient_1" gradientUnits="userSpaceOnUse" x1="313.56433" y1="216.37193" x2="305.95007" y2="167.9586">
			<stop offset="0" stop-color="#FEA620"/>
			<stop offset="1" stop-color="#FFC12E"/>
		</linearGradient>
	</defs>
	<path fill="url(#gradient_1)" transform="scale(2 2)" d="M350.398 172.655C352.208 171.069 354.05 169.531 355.91 168.004C353.918 226.265 272.765 237.686 257.576 175.569C263.385 175.349 268.659 209.68 304.447 209.597C320.014 209.561 333.969 201.423 342.795 188.902C345.056 185.693 350.417 176.583 350.398 172.655Z"/>
	<path fill="#34C2F4" transform="scale(2 2)" d="M215.993 296.536C220.941 280.377 232.21 247.528 241.462 236.767C249.028 227.967 258.725 224.184 270.054 223.27C272.087 227.704 274.618 231.987 276.732 236.414C245.5 239.126 244.59 261.729 234.593 287.161C233.284 290.491 232.134 294.427 230.134 297.408C225.824 296.038 220.504 296.591 215.993 296.536Z"/>
	<path fill="#F9B51F" transform="scale(2 2)" d="M227.395 396.467C233.435 396.483 239.576 396.162 245.6 396.467C242.246 411.239 229.878 408.977 218.247 408.966L83.312 408.955C76.5352 407.235 73.8875 403.414 73.1417 396.467C79.854 396.273 86.6287 396.457 93.3461 396.458L133.231 396.467C133.993 399.482 135.561 403.457 138.836 404.443C142.502 405.546 166.469 405.412 171.958 404.921C177.285 404.445 179.645 401.567 181.188 396.467L227.395 396.467Z"/>
	<path fill="#09A3F6" transform="scale(2 2)" d="M257.576 378.743C261.546 378.591 265.571 378.736 269.546 378.743L291.388 378.743C296.766 384.129 302.13 389.152 307.966 394.04C312.893 397.687 317.742 401.188 323.209 403.996C320.5 405.129 312.807 409.642 310.232 408.177C305.65 406.103 292.454 395.554 291.32 402.358C291.479 402.722 309.568 413.69 311.364 413.935L308.777 413.935C306.826 414.225 304.522 413.987 302.537 413.973L290.22 413.923C277.434 413.913 264.548 414.324 251.774 413.935C252.653 410.735 253.046 407.472 253.559 404.201L255.785 389.881C256.33 386.165 256.749 382.409 257.576 378.743Z"/>
	<path fill="#34C2F4" transform="scale(2 2)" d="M257.576 378.743C261.546 378.591 265.571 378.736 269.546 378.743C268.824 387.38 266.001 405.346 263.722 413.935C274.393 413.712 298.672 412.602 308.777 413.935C306.826 414.225 304.522 413.987 302.537 413.973L290.22 413.923C277.434 413.913 264.548 414.324 251.774 413.935C252.653 410.735 253.046 407.472 253.559 404.201L255.785 389.881C256.33 386.165 256.749 382.409 257.576 378.743Z"/>
	<path fill="#09A3F6" transform="scale(2 2)" d="M270.054 223.27C273.831 223.249 277.63 223.164 281.406 223.27C291.911 238.307 314.062 238.631 328.181 228.811C330.39 227.275 331.66 225.865 332.454 223.27L332.924 223.338C337.194 223.942 341.534 223.928 345.824 224.374C364.973 226.365 381.191 233.803 389.107 252.02C375.842 244.97 363.517 241.008 350.549 231.926C347.973 230.123 345.484 228.059 342.751 226.505C336.836 228.628 331.639 233.119 326.19 236.22C309.738 245.583 291.301 251.69 272.996 256.23C269.353 257.133 265.461 257.531 261.901 258.647C257.05 260.168 260.461 267.417 259.274 271.224C258.692 273.09 257.54 274.974 256.759 276.782C250.382 291.535 244.725 306.637 239.666 321.886L239.6 321.432C238.151 310.953 242.797 302.015 230.134 297.408C232.134 294.427 233.284 290.491 234.593 287.161C244.59 261.729 245.5 239.126 276.732 236.414C274.618 231.987 272.087 227.704 270.054 223.27Z"/>
	<path fill="#FED26D" transform="scale(2 2)" d="M307.082 160.737L325.7 170.247C336.165 175.62 339.223 179.355 350.398 172.655C350.417 176.583 345.056 185.693 342.795 188.902C333.969 201.423 320.014 209.561 304.447 209.597C268.659 209.68 263.385 175.349 257.576 175.569C256.873 171.967 256.319 168.807 256.526 165.107C270.117 177.53 272.9 178.6 288.942 170.215C294.988 167.055 300.948 163.725 307.082 160.737Z"/>
	<path fill="#104070" transform="scale(2 2)" d="M327.455 183.184C335.133 183.285 325.875 190.378 321.864 191.94C310.886 196.214 298.718 194.906 288.161 190.213C286.891 189.155 285.299 187.417 286.421 185.741C288.55 184.697 312.544 198.793 327.455 183.184Z"/>
	<path fill="#CAD2D9" transform="scale(2 2)" d="M342.751 231.26C360.079 247.699 397.502 259.841 420.024 263.957C420.069 308.041 418.109 348.466 385.162 381.418C376.388 390.194 355.651 406.829 343.434 408.955C343.609 404.821 343.396 400.61 343.434 396.467C347.067 395.454 350.303 393.338 353.475 391.357C382.122 373.465 402.006 347.872 406.341 313.396C407.934 300.727 407.581 287.534 407.448 274.775C403.326 272.814 398.041 272.321 393.605 271.08C372.731 265.241 361.029 257.243 342.961 248.875L342.751 248.779C343.162 247.041 342.737 233.833 342.751 231.26Z"/>
	<path fill="#F85D5A" transform="scale(2 2)" d="M254.677 126.04C255.67 123.42 256.351 120.666 257.311 118.027C263.989 99.6679 281.917 85.1026 301.623 84.0362C312.534 83.4459 327.77 85.7706 336.316 93.4817C340.11 104.308 344.027 114.244 343.434 126.04L254.677 126.04Z"/>
	<path fill="#FEFCFC" transform="scale(2 2)" d="M281.895 98.9699C290.18 98.6857 277.622 110.686 276.698 111.988C275.005 114.375 274.02 120.317 271.413 121.439C260.824 120.166 276.572 101.669 281.895 98.9699Z"/>
	<path fill="#E84443" transform="scale(2 2)" d="M262.423 197.771C268.742 206.348 275.859 212.498 285.4 217.253C284.267 217.906 282.924 218.491 281.895 219.267C266.207 219.249 252.97 219.042 240.903 230.977C227.649 244.087 217.907 278.393 211.048 296.536L152.338 296.536C154.686 293.393 158.405 290.854 161.349 288.228L214.408 240.462C229.967 226.278 247.835 212.022 262.423 197.771Z"/>
	<path fill="#FEFCFC" transform="scale(2 2)" d="M263.722 262.595C289.145 256.422 309.408 251.26 332.684 237.36C334.699 236.157 340.969 231.362 342.751 231.26C342.737 233.833 343.162 247.041 342.751 248.779L342.415 248.937C338.48 250.812 334.847 253.378 330.985 255.427C317.625 262.518 302.799 268.416 287.886 271.35C284.517 272.013 280.95 272.342 277.647 273.246C277.184 277.954 277.654 283.014 277.643 287.774C277.536 333.851 292.796 371.265 335.575 393.207C337.955 394.428 340.79 396.004 343.434 396.467C343.396 400.61 343.609 404.821 343.434 408.955C336.828 408.597 317.656 395.861 311.851 391.461C267.232 357.642 263.671 315.253 263.722 262.595Z"/>
	<path fill="#09A3F6" transform="scale(2 2)" d="M256.526 160.737C255.574 156.06 250.383 135.144 250.87 131.798C253.584 128.698 274.033 130.172 279.007 130.171L347.853 130.17C370.419 130.174 361.986 128.493 362.413 143.314L362.428 143.76C358.019 145.337 350.061 162.448 340.822 168.028C339.355 168.914 337.561 169.666 336.316 170.839L318.109 161.538C314.46 159.671 310.872 157.619 307.082 156.053C300.947 158.781 283.051 169.948 278.287 170.839L276.732 171.827C268.872 171.957 262.729 164.78 256.526 160.737Z"/>
	<path fill="#34C2F4" transform="scale(2 2)" d="M253.011 133.89C255.455 134.702 257.439 155.989 260.052 159.626C260.76 160.612 262.414 161.682 263.369 162.477C262.681 162.135 262.022 161.735 261.356 161.353L261.168 161.806C261.525 162.414 262.071 162.599 262.671 162.949L262.728 163.277C256.862 162.286 253.246 138.921 253.011 133.89Z"/>
	<path fill="#34C2F4" transform="scale(2 2)" d="M266.773 163.096C259.694 158.353 255.283 142.32 255.841 135.204L256.157 135.158C259.798 140.69 257.287 150.72 266.773 163.096C267.487 163.415 278.175 170.689 278.287 170.839L276.732 171.827C273.438 170.053 268.348 166.711 266.773 163.096Z"/>
	<path fill="#104070" transform="scale(2 2)" d="M275.198 141.327C280.987 141.048 295.181 143.535 290.549 152.079C288.935 155.057 284.885 155.991 281.895 156.899C262.442 157.454 259.854 143.56 275.198 141.327Z"/>
	<path fill="#FED26D" transform="scale(2 2)" d="M275.198 144.821C284.213 144.316 294.333 149.939 281.406 153.651C271.818 154.581 262.679 148.007 275.198 144.821Z"/>
	<path fill="#104070" transform="scale(2 2)" d="M332.454 141.327C344.092 137.453 355.807 154.903 336.316 156.899C317.599 158.492 317.509 142.476 332.454 141.327Z"/>
	<path fill="#FED26D" transform="scale(2 2)" d="M333.044 144.821C342.698 143.746 348.045 153.078 335.66 153.651C325.833 154.745 321.014 146.925 333.044 144.821Z"/>
	<path fill="#F85D5A" transform="scale(2 2)" d="M131.932 296.536C126.351 291.317 108.518 270.28 106.216 263.701C103.491 255.91 113.51 256.257 118.247 255.766L136.403 253.96C141.41 253.503 161.321 251.987 164.911 250.686C166.013 248.945 146.574 218.665 144.741 213.538C143.384 209.739 145.695 205.891 150.052 206.129C153.191 206.301 156.777 207.984 159.842 208.848C190.549 217.5 224.316 217.18 252.892 201.748C256.996 199.531 260.416 194.452 262.423 197.771C247.835 212.022 229.967 226.278 214.408 240.462L161.349 288.228C158.405 290.854 154.686 293.393 152.338 296.536L131.932 296.536ZM163.822 212.668C154.697 223.32 183.221 220.021 188.844 218.748L192.597 217.253C182.888 217.397 170.07 212.272 163.822 212.668Z"/>
	<path fill="#FEFCFC" transform="scale(2 2)" d="M148.444 209.484C153.212 208.506 163.321 211.162 157.212 217.253C153.612 217.649 143.153 214.273 148.444 209.484Z"/>
	<path fill="#AEEAD2" transform="scale(2 2)" d="M344.478 93.4817C348.759 94.2446 353.443 97.4943 357.127 99.8308C422.62 141.379 452.101 217.209 438.52 293.242C427.96 352.364 391.651 398.69 337.13 423.463C287.109 446.192 228.946 446.594 178.529 424.511C175.09 423.005 158.04 415.355 157.212 413.002C160.533 412.538 166.053 412.989 169.634 412.991L225.968 413.044C237.892 413.17 246.128 411.604 249.45 398.599C249.666 396.47 249.869 394.357 249.937 392.217L239.666 392.217L239.666 360.062C243.325 360.049 247.54 359.518 251.125 360.062C251.123 362.264 250.721 376.523 251.501 377.427L252.662 377.288C253.382 378.794 250.218 395.703 249.937 398.599C249.095 403.593 248.17 408.878 248.757 413.935L251.774 413.935C264.548 414.324 277.434 413.913 290.22 413.923L302.537 413.973C304.522 413.987 306.826 414.225 308.777 413.935L311.364 413.935L311.969 413.935C314.282 414.14 316.691 413.999 319.015 413.983L333.013 413.918C335.426 413.912 337.941 413.754 340.344 413.935C344.563 413.861 347.306 413.01 351.068 411.154C410.369 381.894 424.266 334.859 424.381 274.134C424.387 270.795 425.048 263.607 423.619 260.715C422.092 259.752 399.039 254.596 394.326 253.593C390.737 243.479 387.137 241.522 382.77 233.863C381.085 230.907 380.329 227.349 378.802 224.276C373.6 213.805 362.835 201.592 351.487 197.771C352.661 195.418 354.057 193.186 355.287 190.861L355.287 190.213C359.03 182.068 360.289 173.175 360.197 164.272C365.006 157.904 365.266 149.544 366.459 141.921C367.309 136.492 370.377 127.512 362.428 126.04C361.272 116.853 356.519 107.25 350.615 100.163C348.666 97.8227 346.146 96.0732 344.478 93.4817Z"/>
	<path fill="#82DBBF" transform="scale(2 2)" d="M376.878 189.166C376.879 186.967 378.226 165.536 378.463 164.871C379.97 170.934 379.758 182.796 379.957 189.166C385.695 189.665 391.532 190.118 397.239 190.861C391.601 192.116 385.453 192.164 379.696 192.293C379.766 196.479 379.457 212.588 378.321 215.649C377.943 207.858 377.167 200.086 376.878 192.293C371.031 192.426 360.713 192.122 355.287 190.861L355.287 190.213C362.503 190.258 369.652 189.222 376.878 189.166Z"/>
	<path fill="#E2F4EA" transform="scale(2 2)" d="M413.099 184.424C416.527 187.783 413.864 195.536 427.568 200.387C419.544 201.701 417.364 203.345 413.878 211.187C412.918 214.254 411.448 207.528 410.522 206.118C408.184 202.554 405.148 201.159 401.117 200.387L401.622 200.075C408.131 196.033 411.346 191.914 413.099 184.424Z"/>
	<path fill="#104070" transform="scale(2 2)" d="M342.751 248.779L342.961 248.875C361.029 257.243 372.731 265.241 393.605 271.08C398.041 272.321 403.326 272.814 407.448 274.775C407.581 287.534 407.934 300.727 406.341 313.396C402.006 347.872 382.122 373.465 353.475 391.357C350.303 393.338 347.067 395.454 343.434 396.467C340.79 396.004 337.955 394.428 335.575 393.207C292.796 371.265 277.536 333.851 277.643 287.774C277.654 283.014 277.184 277.954 277.647 273.246C280.95 272.342 284.517 272.013 287.886 271.35C302.799 268.416 317.625 262.518 330.985 255.427C334.847 253.378 338.48 250.812 342.415 248.937L342.751 248.779Z"/>
	<path fill="#F85D5A" transform="scale(2 2)" d="M281.895 276.709C307.787 272.631 320.996 264.136 342.751 253.593C342.251 257.122 342.719 260.808 342.736 264.372L342.751 288.011C303.32 289.399 300.404 347.454 342.751 352.221C342.539 364.138 343.958 380.952 342.751 392.217C291.049 362.315 281.768 337.572 281.895 276.709Z"/>
	<path fill="#E84443" transform="scale(2 2)" d="M342.751 253.593C363.674 265.068 379.855 272.099 403.264 278.181C401.763 317.852 402.958 342.964 369.757 373.808C364.545 378.649 349.209 390.871 342.751 392.217C343.958 380.952 342.539 364.138 342.751 352.221C300.404 347.454 303.32 289.399 342.751 288.011L342.736 264.372C342.719 260.808 342.251 257.122 342.751 253.593Z"/>
	<path fill="#F9B51F" transform="scale(2 2)" d="M342.751 288.011L342.751 288.011C383.084 287.397 388.004 349.254 342.751 352.221C300.404 347.454 303.32 289.399 342.751 288.011Z"/>
	<path fill="#7B94A5" transform="scale(2 2)" d="M347.556 309.604C354.071 309.277 360.691 309.651 367.223 309.604C366.571 312.185 365.609 317.864 364.266 319.988C362.567 320.318 360.401 320.002 358.646 319.998L343.434 319.988C343.471 316.877 343.221 313.718 343.434 310.618C344.214 310.201 345.418 310.531 346.305 310.618C346.747 310.299 347.145 309.959 347.556 309.604Z"/>
	<path transform="scale(2 2)" d="M347.556 309.604C354.071 309.277 360.691 309.651 367.223 309.604C366.571 312.185 365.609 317.864 364.266 319.988C362.394 319.404 365.624 312.044 366.09 310.618C359.424 310.775 349.961 311.138 343.434 310.618C344.214 310.201 345.418 310.531 346.305 310.618C346.747 310.299 347.145 309.959 347.556 309.604Z"/>
	<path fill="#FEFCFC" transform="scale(2 2)" d="M364.266 319.988L364.744 320.315C364.299 322.379 361.671 323.872 360.641 325.778C358.691 329.385 357.742 334.088 357.037 338.106C354.599 336.223 345.171 327.926 342.751 327.726C339.413 331.773 334.521 334.426 330.793 338.106C328.767 333.978 327.47 329.395 325.097 325.459C323.296 322.471 319.129 320.714 323.209 319.988C325.304 320.357 327.868 320.062 330.008 320.041L343.434 319.988L358.646 319.998C360.401 320.002 362.567 320.318 364.266 319.988Z"/>
	<path fill="#FED26D" transform="scale(2 2)" d="M342.751 288.011L342.751 288.011L342.751 302.295C348.947 302.078 347.457 304.42 347.556 309.604C347.145 309.959 346.747 310.299 346.305 310.618C345.418 310.531 344.214 310.201 343.434 310.618C343.221 313.718 343.471 316.877 343.434 319.988L330.008 320.041C327.868 320.062 325.304 320.357 323.209 319.988C319.129 320.714 323.296 322.471 325.097 325.459C327.47 329.395 328.767 333.978 330.793 338.106C334.521 334.426 339.413 331.773 342.751 327.726C342.878 333.765 343.485 346.527 342.751 352.221C300.404 347.454 303.32 289.399 342.751 288.011Z"/>
	<path fill="#471643" transform="scale(2 2)" d="M342.751 302.295C348.947 302.078 347.457 304.42 347.556 309.604C347.145 309.959 346.747 310.299 346.305 310.618C345.418 310.531 344.214 310.201 343.434 310.618L343.434 310.618C342.409 310.563 341.371 310.607 340.344 310.618L321.573 310.618C322.152 312.712 324.069 317.834 323.742 319.801L323.209 319.988C322.28 316.511 321.561 313.016 320.394 309.604C326.74 309.617 333.332 309.166 339.643 309.604L339.643 302.295L342.751 302.295Z"/>
	<path fill="#677F95" transform="scale(2 2)" d="M340.344 303.144C347.79 302.713 346.251 304.236 346.305 310.618C345.418 310.531 344.214 310.201 343.434 310.618L343.434 310.618C342.409 310.563 341.371 310.607 340.344 310.618C340.339 308.847 339.858 304.699 340.344 303.144Z"/>
	<path fill="#CAD2D9" transform="scale(2 2)" d="M340.344 310.618C340.339 308.847 339.858 304.699 340.344 303.144C344.517 303.539 343.124 305.764 343.434 310.618C342.409 310.563 341.371 310.607 340.344 310.618Z"/>
	<path fill="#AEEAD2" transform="scale(2 2)" d="M340.344 310.618C341.371 310.607 342.409 310.563 343.434 310.618L343.434 310.618C343.221 313.718 343.471 316.877 343.434 319.988L330.008 320.041C327.868 320.062 325.304 320.357 323.209 319.988L323.742 319.801C324.069 317.834 322.152 312.712 321.573 310.618L340.344 310.618Z"/>
	<path fill="#677F95" transform="scale(2 2)" d="M100.046 300.897L212.157 300.886C231.299 300.876 235.216 297.64 235.225 319.636L235.22 392.217L218.125 392.217L82.4006 392.217L82.3786 315.767C82.3653 310.028 81.0219 304.431 86.5048 300.897L100.046 300.897Z"/>
	<path fill="#7B94A5" transform="scale(2 2)" d="M102.866 315.016C108.301 314.755 113.806 315.013 119.251 315.016L183.708 315.137C189.689 315.106 209.239 313.849 214.007 315.746C221.586 318.76 218.772 340.482 218.755 347.271C218.732 356.835 222.34 374.483 212.377 378.743C203.671 378.042 194.502 378.757 185.743 378.756L112.793 378.759C91.5124 378.787 96.4617 373.06 96.4804 354.488L96.4811 334.504C96.4803 327.347 94.2038 316.624 102.866 315.016Z"/>
	<path fill="#677F95" transform="scale(2 2)" d="M157.212 332.1C175.629 329.731 180.96 358.022 160.27 361.96C139.091 363.731 136.411 334.126 157.212 332.1Z"/>
	<path fill="#FEFCFC" transform="scale(2 2)" d="M157.212 335.815C170.952 334.237 174.725 353.722 160.27 358.29C143.861 359.309 141.835 338.473 157.212 335.815Z"/>
	<path fill="#AEEAD2" transform="scale(2 2)" d="M244.799 70.4825C261.619 70.5719 299.506 71.1263 311.364 79.3764C283.091 78.7976 259.491 93.4625 251.759 121.169C248.405 133.19 244.867 125.931 248.029 141.375C249.069 146.456 250.242 151.571 251.047 156.693C253.034 169.341 252.32 180.845 259.544 192.293C230.951 212.187 196.972 214.893 163.602 205.705C158.186 204.214 149.66 199.958 144.338 203.63C135.889 209.459 142.781 219 146.324 225.369C150.452 232.786 154.73 240.081 158.973 247.429L125.248 250.958C117.386 251.766 100.112 250.752 101.922 263.358C103.143 271.854 120.406 289.948 126.196 296.536L100.656 296.519C90.413 296.519 77.4526 294.573 78.2508 309.604C75.3255 312.188 74.4849 301.365 73.8507 298.507C61.9697 244.98 74.9813 189.131 107.949 145.659C136.11 108.526 180.088 80.3439 226.501 73.0186C232.014 72.1484 237.611 71.6791 243.065 70.4825L244.799 70.4825Z"/>
	<path fill="#E2F4EA" transform="scale(2 2)" d="M243.065 70.4825L244.799 70.4825L244.878 70.6819C249.868 83.6527 247.585 80.3344 261.356 83.6968C248.584 84.8355 245.689 88.1817 244.799 100.575C242.877 95.9009 242.754 90.6952 239.666 86.5155C235.746 84.3143 231.84 83.7715 227.395 83.6968L227.786 83.5592C232.37 81.9755 246.145 80.2652 243.065 70.4825Z"/>
	<path fill="#82DBBF" transform="scale(2 2)" d="M224.696 150.681C225.58 152.22 225.91 167.934 226.006 170.839C232.456 170.937 240.244 172.072 246.797 172.655C241.336 174.231 232.051 174.772 226.006 175.569C225.766 179.754 224.947 192.417 223.792 195.809L223.641 195.392C222.384 189.359 221.762 181.737 221.8 175.569C214.736 174.774 206.944 174.435 200.111 172.655C207.338 171.993 214.56 171.339 221.8 170.839C222.131 164.398 222.302 156.711 224.696 150.681Z"/>
	<path fill="#82DBBF" transform="scale(2 2)" d="M108.28 195.392C109.906 198.164 110.106 212.513 111.144 217.253C118.476 218.288 125.956 218.157 133.231 219.72C125.829 220.167 118.43 221.136 111.144 222.532C109.481 230.73 109.938 239.194 108.28 247.429L108.231 247.521L108.074 247.439C108.504 238.915 106.434 230.956 106.067 222.532C99.2467 220.703 92.2877 220.759 85.3779 219.72C91.4597 218.469 99.7982 217.714 106.067 217.253C107.259 209.965 107.429 202.692 108.28 195.392Z"/>
	<path fill="#82DBBF" transform="scale(2 2)" d="M123.511 152.468C136.326 152.456 149.166 152.664 161.977 152.468L161.977 186.477C149.183 186.762 136.313 186.483 123.511 186.477L123.511 152.468Z"/>
	<path fill="#0ADC94" transform="scale(2 2)" d="M215.993 95.16C218.414 95.7309 228.327 106.753 230.918 109.267C218.217 123.199 200.841 140.796 187.129 153.651C182.207 148.479 176.921 143.56 171.875 138.499C166.884 133.561 161.439 128.681 157.212 123.059C160.361 118.696 167.721 111.803 171.875 108.05C175.581 113.314 182.545 119.145 187.129 124.024C191.641 118.569 210.765 98.7661 215.993 95.16Z"/>
</svg>
