<?xml version="1.0" encoding="utf-8" ?>
<svg xmlns="http://www.w3.org/2000/svg" xmlns:xlink="http://www.w3.org/1999/xlink" width="1024" height="1024">
	<path fill="#5D1B7C" transform="scale(2 2)" d="M348.027 70.119C413.448 69.3183 463.636 121.034 458.717 187.575C456.006 224.254 432.899 261.117 398.931 276.462C395.798 277.877 392.506 279.022 389.527 280.75L389.131 280.983L389.139 387.5C389.192 408.743 390.206 408.235 374.851 423.571C366.715 431.697 360.089 440.397 347.314 440.555C333.694 440.724 331.907 432.541 325.846 424.895C320.955 418.725 313.207 415.507 313.234 406.428C313.258 398.182 321.78 393.124 327.618 387.292C324.601 384.06 311.429 371.69 311.605 368.717C311.754 366.186 325.752 353.155 328.484 350.491C324.467 346.202 316.454 339.607 313.504 335.007L313.504 297.255L285.904 297.255L285.904 370.037C300.668 374.087 303.367 395.732 287.945 401.048C266.979 408.274 255.441 377.529 279.491 370.037C279.239 361.987 279.487 353.848 279.488 345.786L279.491 297.255L246.727 297.255C246.725 301.25 247.312 315.818 246.309 318.528C243.296 326.661 206.424 354.96 198.873 366.911L198.863 385.751C198.84 389.347 198.614 392.936 198.873 396.529C223.442 403.34 208.558 439.168 187.193 427.401C173.772 420.009 176.288 400.943 192.223 396.529L192.214 374.808C192.206 371.348 191.887 367.742 192.223 364.308C206.569 347.789 224.809 332.363 240.104 316.296C240.378 309.995 240.111 303.569 240.104 297.255C234.218 297.243 228.194 297.569 222.324 297.255C219.751 300.233 216.721 302.862 213.981 305.696L174.465 345.91C172.508 347.883 170.594 349.964 168.46 351.746C159.507 352.019 150.463 351.748 141.501 351.746C138.252 363.238 128.486 368.694 117.212 364.308C97.4294 354.294 111.499 325.524 130.966 333.3C136.572 335.539 139.196 340.112 141.501 345.389C149.509 345.684 157.631 345.398 165.652 345.389C168.725 342.62 171.518 339.5 174.453 336.582L200.476 310.354C204.881 305.949 209.215 301.381 213.883 297.255C205.981 296.287 191.269 277.396 183.493 271.516C179.141 275.007 160.851 295.152 157.748 295.667C153.994 296.289 143.311 282.797 139.75 280.022C136.93 282.555 124.706 295.742 122.089 295.808C120.334 295.852 107.513 282.172 105.512 280.022C102.963 282.733 91.2646 295.447 88.2827 295.536C85.9982 295.604 61.6617 270.257 58.2944 266.708C53.7146 261.881 51.2521 255.572 54.97 249.475C56.9383 246.247 73.4718 228.601 78.2211 227.949C83.6173 227.207 93.0338 227.731 98.7352 227.738L243.517 227.745C247.84 227.742 252.161 227.569 256.482 227.747C253.165 219.872 250.28 211.971 247.977 203.741L206.48 203.741C203.687 201.468 201.169 198.757 198.61 196.223L184.338 181.896C179.426 176.948 169.31 167.998 165.652 162.385L141.501 162.385C134.885 178.14 115.948 179.603 110.319 165.001C102.675 145.174 132.69 131.073 141.501 156.253L167.235 156.253C173.923 160.53 202.623 190.937 208.539 197.382L246.727 197.382C244.567 191.164 244.534 183.984 244.506 177.448C237.456 177.279 230.394 177.614 223.342 177.448C218.414 173.677 193.44 147.283 193.075 145.927C192.571 144.056 192.695 114.63 192.879 110.423C167.949 104.437 180.788 72.1423 201.395 80.1076C215.392 85.518 214.703 103.619 198.873 110.423L198.873 143.868C208.268 152.555 216.936 162.092 225.958 171.164L244.506 171.164C244.276 166.588 245.099 162.088 245.89 157.602C254.883 106.618 297.177 71.8732 348.027 70.119ZM264.789 227.747C265.43 232.119 277.255 248.99 281.467 250.786C284.567 255.964 292.705 261.258 297.798 264.594C360.439 305.629 441.697 264.981 451.975 193.534C452.253 191.597 453.782 187.305 451.813 186.048C456.328 168.606 448.484 142.309 439.543 127.175C408.405 74.4727 337.056 59.3257 288.451 97.8127C259.872 120.442 244.515 159.386 252.319 195.389C254.604 205.932 259.144 218.796 264.789 227.747ZM62.4263 261.664C68.6065 256.018 77.2057 245.734 83.2506 242.021C89.8348 241.646 96.6331 242.013 103.245 242.021L262.998 242.021L264.789 242.021C263.152 239.354 261.39 236.705 259.883 233.965L98.6075 233.955C77.4313 233.942 82.7019 230.401 68.0395 244.904C63.4416 249.452 55.2502 254.578 62.1888 261.433L62.4263 261.664ZM319.746 282.405L319.746 332.957C325.262 338.039 332.746 344.58 337.265 350.491C330.955 356.412 325.095 362.78 318.853 368.761L329.521 379.938C331.805 382.332 334.214 384.678 336.245 387.292C331.938 392.581 322.785 399.657 319.746 404.42C319.73 406.243 319.677 408.076 319.746 409.897C322.594 413.526 326.781 416.727 330.18 419.851C330.614 415.54 329.236 409.914 326.735 406.49C331.507 400.263 338.41 395.936 343.18 389.831C346.93 385.033 339.541 380.558 336.542 377.442C333.803 374.596 331.337 371.501 328.484 368.761C332.523 363.437 346.907 352.703 343.758 347.148C340.583 341.547 331.312 335.73 326.944 329.678L326.735 329.384C326.56 325.805 326.717 322.205 326.722 318.621L326.735 297.922L326.735 284.41C324.364 283.404 322.312 282.709 319.746 282.405ZM375.755 284.41C375.839 288.916 375.75 293.417 375.755 297.922L375.749 400.379C375.744 404.726 375.571 409.147 375.755 413.483C386.587 404.152 382.97 391.147 382.967 377.565L382.982 310.649C382.994 302.388 382.128 290.357 382.974 282.405C380.555 283.028 378.18 283.802 375.755 284.41ZM122.463 338.774C108.889 342.906 112.954 361.75 127.046 359.216C139.288 355.846 137.679 337.975 122.463 338.774ZM193.814 402.554C180.695 404.933 183.542 425.573 197.205 422.95C210.506 418.398 206.076 400.888 193.814 402.554ZM124.161 149.026C111.413 151.989 112.976 169.172 127.046 168.742C139.756 164.639 136.406 147.722 124.161 149.026ZM281.467 376.068C268.578 378.775 270.48 394.993 282.81 396.529C295.842 393.949 293.825 374.266 281.467 376.068ZM192.879 85.3313C180.34 89.8477 185.088 106.299 197.205 104.254C209.61 99.8307 206.74 84.4621 192.879 85.3313Z"/>
	<path fill="#45D3B5" transform="scale(2 2)" d="M366.707 286.422C369.656 285.502 372.739 285.069 375.755 284.41C375.839 288.916 375.75 293.417 375.755 297.922C372.733 298.386 369.716 298.853 366.707 299.398L366.707 286.422Z"/>
	<path fill="#45D3B5" transform="scale(2 2)" d="M264.789 242.021C278.883 258.152 291.987 272.969 313.504 280.022C313.518 282.493 314.746 290.629 311.724 290.789C306.806 285.483 299.981 282.591 294.12 278.505C285.09 272.21 266.273 253.138 262.998 242.021L264.789 242.021Z"/>
	<path fill="#45D3B5" transform="scale(2 2)" d="M326.735 284.41C339.566 286.642 347.307 286.833 360.453 286.808L360.453 300.086C348.313 300.128 337.334 297.982 326.735 297.922L326.735 284.41Z"/>
	<path fill="#78ECDB" transform="scale(2 2)" d="M375.755 297.922L375.749 400.379C375.744 404.726 375.571 409.147 375.755 413.483C373.34 416.932 369.704 419.977 366.707 422.95C367.033 418.53 366.728 414.06 366.717 409.629L366.707 299.398C369.716 298.853 372.733 298.386 375.755 297.922Z"/>
	<path fill="#78ECDB" transform="scale(2 2)" d="M326.735 297.922C337.334 297.982 348.313 300.128 360.453 300.086L360.454 410.347C360.453 416.915 362.05 425.538 357.035 430.679C351.678 436.171 342.08 435.555 336.879 430.154C334.039 427.206 332.653 423.112 330.18 419.851C330.614 415.54 329.236 409.914 326.735 406.49C331.507 400.263 338.41 395.936 343.18 389.831C346.93 385.033 339.541 380.558 336.542 377.442C333.803 374.596 331.337 371.501 328.484 368.761C332.523 363.437 346.907 352.703 343.758 347.148C340.583 341.547 331.312 335.73 326.944 329.678L326.735 329.384C326.56 325.805 326.717 322.205 326.722 318.621L326.735 297.922Z"/>
	<path fill="#78ECDB" transform="scale(2 2)" d="M83.2506 242.021C89.8348 241.646 96.6331 242.013 103.245 242.021L262.998 242.021C266.273 253.138 285.09 272.21 294.12 278.505C299.981 282.591 306.806 285.483 311.724 290.789C308.181 290.541 304.495 290.764 300.934 290.773L212.964 290.789C208.542 287.256 186.105 263.253 183.133 263.077C178.292 265.722 162.857 283.272 157.639 288.09C153.065 283.946 144.491 273.91 139.75 271.516C133.802 275.146 127.77 283.131 122.463 288.09C119.241 284.951 108.962 273.573 105.612 272.242C102.883 272.426 99.9632 276.554 98.2113 278.332L88.5703 288.09C80.0186 279.147 70.7586 270.799 62.4263 261.664C68.6065 256.018 77.2057 245.734 83.2506 242.021Z"/>
	<path fill="#FB84A6" transform="scale(2 2)" d="M264.789 227.747C259.144 218.796 254.604 205.932 252.319 195.389C244.515 159.386 259.872 120.442 288.451 97.8127C337.056 59.3257 408.405 74.4727 439.543 127.175C448.484 142.309 456.328 168.606 451.813 186.048C453.782 187.305 452.253 191.597 451.975 193.534C441.697 264.981 360.439 305.629 297.798 264.594C292.705 261.258 284.567 255.964 281.467 250.786C277.255 248.99 265.43 232.119 264.789 227.747ZM348.928 99.3548C325.283 100.746 304.988 116.092 299.341 139.319C297.712 146.017 297.955 152.919 297.961 159.758L297.97 177.334C297.973 198.298 296.132 216.128 314.24 231.856C324.886 241.103 339.797 247.246 354.062 245.911C368.521 244.806 382.103 238.564 391.643 227.476C406.233 210.519 404.474 193.432 404.452 172.691C404.442 164.161 404.846 155.419 404.211 146.916C402.14 119.211 376.479 97.5222 348.928 99.3548ZM264.789 227.747C264.787 225.703 261.68 219.037 260.951 216.303C256.419 199.288 253.716 181.584 256.493 164.029C269.592 81.2211 375.967 54.1341 428.259 122.486C442.95 141.688 452.252 170.833 447.753 195.079C447.158 198.287 445.108 202.052 445.639 205.317C448.027 199.032 450.26 192.596 451.813 186.048C456.328 168.606 448.484 142.309 439.543 127.175C408.405 74.4727 337.056 59.3257 288.451 97.8127C259.872 120.442 244.515 159.386 252.319 195.389C254.604 205.932 259.144 218.796 264.789 227.747Z"/>
	<path fill="#EC3E92" transform="scale(2 2)" d="M451.813 186.048C453.782 187.305 452.253 191.597 451.975 193.534C441.697 264.981 360.439 305.629 297.798 264.594C292.705 261.258 284.567 255.964 281.467 250.786C282.251 250.996 287.027 255.957 288.099 256.832C300.261 266.762 315.157 274.941 330.618 278.379C345.338 281.653 377.118 280.971 390.346 272.502L390.378 272.168C388.752 273.378 387.342 272.203 385.747 272.483L385.423 272.25C385.906 272.004 386.008 271.955 386.333 271.493L386.169 271.349C384.972 271.131 383.919 271.079 382.754 271.486C379.751 272.533 378.819 269.71 375.924 269.887C373.083 270.06 370.245 271.419 367.385 271.818C334.349 276.434 302.345 264.696 279.121 240.624C276.391 237.795 273.02 234.477 270.959 231.158L269.7 229.173C271.293 230.475 272.709 232.762 274.038 234.373C322.076 292.587 410.666 281.603 441.864 214.184C443.191 211.316 444.742 208.346 445.639 205.317C448.027 199.032 450.26 192.596 451.813 186.048Z"/>
	<path fill="#5D1B7C" transform="scale(2 2)" d="M348.928 99.3548C376.479 97.5222 402.14 119.211 404.211 146.916C404.846 155.419 404.442 164.161 404.452 172.691C404.474 193.432 406.233 210.519 391.643 227.476C382.103 238.564 368.521 244.806 354.062 245.911C339.797 247.246 324.886 241.103 314.24 231.856C296.132 216.128 297.973 198.298 297.97 177.334L297.961 159.758C297.955 152.919 297.712 146.017 299.341 139.319C304.988 116.092 325.283 100.746 348.928 99.3548ZM303.983 158.851C303.288 165.988 303.961 173.553 303.968 180.736C303.986 198.816 303.525 212.155 317.434 226.079C336.043 244.709 366.658 244.417 384.931 225.508C401.99 207.855 398.671 177.937 398.181 154.292C396.796 151.877 396.671 147.942 395.314 144.964C375.667 101.852 320.07 107.071 307.215 148.431C306.25 151.535 305.997 156.376 303.983 158.851ZM303.983 158.851C305.997 156.376 306.25 151.535 307.215 148.431C320.07 107.071 375.667 101.852 395.314 144.964C396.671 147.942 396.796 151.877 398.181 154.292C399.925 92.4423 302.756 84.8568 303.983 158.851Z"/>
	<path fill="#78ECDB" transform="scale(2 2)" d="M303.983 158.851C305.997 156.376 306.25 151.535 307.215 148.431C320.07 107.071 375.667 101.852 395.314 144.964C396.671 147.942 396.796 151.877 398.181 154.292C398.671 177.937 401.99 207.855 384.931 225.508C366.658 244.417 336.043 244.709 317.434 226.079C303.525 212.155 303.986 198.816 303.968 180.736C303.961 173.553 303.288 165.988 303.983 158.851ZM349.897 126.601C318.698 129.526 317.045 172.91 347.356 177.448L347.347 193.903C347.349 198.442 345.66 208.896 353.49 206.448C356.348 203.452 355.247 197.75 355.23 193.98L355.188 177.448C390.941 167.787 378.541 124.166 349.897 126.601Z"/>
	<path fill="#5D1B7C" transform="scale(2 2)" d="M349.897 126.601C378.541 124.166 390.941 167.787 355.188 177.448L355.23 193.98C355.247 197.75 356.348 203.452 353.49 206.448C345.66 208.896 347.349 198.442 347.347 193.903L347.356 177.448C317.045 172.91 318.698 129.526 349.897 126.601ZM348.928 132.849C322.692 138.189 329.181 173.848 353.49 171.164C380.216 166.985 373.295 129.878 348.928 132.849Z"/>
</svg>
